<?xml version="1.0" encoding="UTF-8"?>
<svg xmlns="http://www.w3.org/2000/svg" xmlns:xlink="http://www.w3.org/1999/xlink" viewBox="0 0 40 40" width="40px" height="40px">
<g id="surface35836175">
<path style=" stroke:none;fill-rule:nonzero;fill:rgb(60.784316%,31.764707%,87.843138%);fill-opacity:1;" d="M 13.488281 4.375 C 8.464844 4.375 4.375 8.464844 4.375 13.492188 L 4.375 26.511719 C 4.375 31.535156 8.464844 35.625 13.492188 35.625 L 26.511719 35.625 C 31.535156 35.625 35.625 31.535156 35.625 26.507812 L 35.625 13.488281 C 35.625 8.464844 31.535156 4.375 26.507812 4.375 Z M 29.375 9.375 C 30.066406 9.375 30.625 9.933594 30.625 10.625 C 30.625 11.316406 30.066406 11.875 29.375 11.875 C 28.683594 11.875 28.125 11.316406 28.125 10.625 C 28.125 9.933594 28.683594 9.375 29.375 9.375 Z M 20 11.875 C 24.480469 11.875 28.125 15.519531 28.125 20 C 28.125 24.480469 24.480469 28.125 20 28.125 C 15.519531 28.125 11.875 24.480469 11.875 20 C 11.875 15.519531 15.519531 11.875 20 11.875 Z M 20 14.375 C 16.894531 14.375 14.375 16.894531 14.375 20 C 14.375 23.105469 16.894531 25.625 20 25.625 C 23.105469 25.625 25.625 23.105469 25.625 20 C 25.625 16.894531 23.105469 14.375 20 14.375 Z M 20 14.375 "/>
</g>
</svg>
