<?xml version="1.0" encoding="UTF-8"?>
<svg xmlns="http://www.w3.org/2000/svg" xmlns:xlink="http://www.w3.org/1999/xlink" viewBox="0 0 40 40" width="40px" height="40px">
<g id="surface35813413">
<path style=" stroke:none;fill-rule:nonzero;fill:rgb(60.784316%,31.764707%,87.843138%);fill-opacity:1;" d="M 20 1.601562 C 9.855469 1.601562 1.601562 9.855469 1.601562 20 C 1.601562 30.144531 9.855469 38.398438 20 38.398438 C 30.144531 38.398438 38.398438 30.144531 38.398438 20 C 38.398438 9.855469 30.144531 1.601562 20 1.601562 Z M 27.976562 23.628906 C 29.769531 25.21875 30.140625 25.785156 30.199219 25.878906 C 30.941406 27.058594 29.378906 27.199219 29.378906 27.199219 L 26.082031 27.199219 C 26.082031 27.199219 25.28125 27.207031 24.59375 26.753906 C 23.476562 26.023438 22.304688 24.601562 21.484375 24.847656 C 20.792969 25.054688 20.800781 25.988281 20.800781 26.785156 C 20.800781 27.070312 20.554688 27.199219 20 27.199219 C 19.445312 27.199219 19.214844 27.199219 18.96875 27.199219 C 17.164062 27.199219 15.203125 26.59375 13.25 24.550781 C 10.484375 21.664062 8.0625 15.847656 8.0625 15.847656 C 8.0625 15.847656 7.917969 15.554688 8.074219 15.375 C 8.25 15.175781 8.730469 15.199219 8.730469 15.199219 L 11.925781 15.199219 C 11.925781 15.199219 12.226562 15.257812 12.445312 15.410156 C 12.621094 15.535156 12.722656 15.773438 12.722656 15.773438 C 12.722656 15.773438 13.257812 17.542969 13.941406 18.675781 C 15.277344 20.882812 15.898438 20.9375 16.355469 20.699219 C 17.015625 20.355469 16.800781 18.011719 16.800781 18.011719 C 16.800781 18.011719 16.828125 17.003906 16.484375 16.554688 C 16.21875 16.207031 15.707031 16.023438 15.484375 15.992188 C 15.304688 15.96875 15.605469 15.65625 15.988281 15.476562 C 16.5 15.246094 17.199219 15.1875 18.398438 15.199219 C 19.335938 15.207031 19.605469 15.265625 19.96875 15.347656 C 21.074219 15.601562 20.800781 16.273438 20.800781 18.632812 C 20.800781 19.386719 20.695312 20.449219 21.265625 20.800781 C 21.511719 20.953125 22.351562 21.136719 23.851562 18.707031 C 24.5625 17.550781 25.128906 15.636719 25.128906 15.636719 C 25.128906 15.636719 25.242188 15.429688 25.425781 15.324219 C 25.609375 15.21875 25.605469 15.21875 25.859375 15.21875 C 26.113281 15.21875 28.664062 15.199219 29.226562 15.199219 C 29.785156 15.199219 30.308594 15.195312 30.398438 15.523438 C 30.53125 15.992188 29.988281 17.605469 28.613281 19.359375 C 26.355469 22.234375 26.105469 21.964844 27.976562 23.628906 Z M 27.976562 23.628906 "/>
</g>
</svg>
